<!-- 
******* (c) Fla-shop.com | SVG map of Germany *******
******* Free for personal and commercial use under CC-BY-4.0 license *******
******* Attribution is required https://www.fla-shop.com *******
 -->
        <svg xmlns="http://www.w3.org/2000/svg" viewBox="0 0 1500 2000" fill="none">
  <path id="outline" d="m 203.4,387.8 -7,0 -4.9,-6.2 19.1,-5.9 -7.2,12.1 z m 91.5,-33.2 -26.1,6 -5.5,-3.1 14.7,-6 16.9,3.1 z m 42.1,-6.2 -16.9,0 -4,-2.9 18.1,0 2.8,2.9 z m 25.2,-6 -7,6 -8,-2.9 5.4,-6.1 9.6,3 z m 548.5,-54.3 -4.4,11.9 -13.4,-2.9 2,-6 11.4,-6 4.4,3 z m -382.3,-111.8 -6.4,0 -4.5,-9.1 4.7,-6.2 17,0 -10.8,15.3 z m 345.4,-3.1 8.7,15.1 -18.5,-3.1 -10.8,3.1 -2.3,-6.2 -9.7,0 -3.8,-5.8 3.8,-9.1 13,-9.1 12.7,6.1 6.9,9 z m -377.5,-6 -7,0 -2.3,-9.1 14.1,-6.2 -4.8,15.3 z M 1143,155 l -5,6 6,-24.1 6,0 -5,3 -2,15.1 z m -694.1,-39.2 6.5,15 -4.2,6.1 -8.2,-12 5.9,-9.1 z m 0,0 3.8,-3.2 -3.8,3.2 z m 735.1,5.9 1,12.3 11,5.9 19,-3 6,0 6,12.1 -14,15.2 6,14.9 13,6.1 10,12.2 -8,9.1 -8,0 8,-6.2 -9,-6 -21,3.1 -21,21 8,0 1,6.2 -16,-3.1 3,-9 -9,9 -23,-21.2 4,-9.1 15,-2.9 -2,-9.2 -12,0 3,-5.9 11,-6 -4,-12.2 -7,3.1 -2,-9.1 10,-3.1 7,3.1 12,-12.1 -3,18.1 5,-6 7,12 12,0 -3,-15.1 -8,0 -11,-15.1 -13,15.1 -4,-3.1 5,-17.9 -9,2.9 4,-9.1 19,-6.1 8,3.2 -7,5.9 z m -697,-12.1 -3.2,9.1 -17.4,0 -8.2,-6.1 10.2,-8.9 13,0 5.6,5.9 z m 35,-42.36 52.5,12.15 4.6,12.15 15,0 8.3,-3.04 9.3,3.04 19.1,-15.19 0,9.12 16.3,3.03 15.6,9.08 2.8,6.12 13.7,-6.12 7.5,6.12 6.9,15 -12.9,6.2 15.2,0 -2.3,33.2 -13.9,12 -12.6,3.1 6.5,5.9 35.5,-9 11.4,9 -2.3,15.2 -7.1,6 5.6,9.1 5.4,-18.2 12.9,-6 8.2,0 12.1,6 23.4,12.1 12.8,12.3 12.8,0 22.7,-18.2 12.7,0 2.1,2.9 14.4,-2.9 -8,12 2.7,27.3 -4.3,12.1 -16.9,8.9 -6.1,9.1 -15.6,3.1 -7,12.1 3.5,9.1 12.8,3.1 6.3,8.9 21.8,-12 17.5,-3 10.9,9 -0.7,9.1 13.7,-3.1 18.4,12.2 4.7,-24.2 18.4,-18.2 5.9,-15.2 9.7,-6 12.7,3.2 34.9,-9.1 7.5,0 12,-15.2 22,-18.1 15,-21.3 8,-21.1 13,6.2 42,0 6,2.8 -7,3 -26,-3 -10,3 -13,15.3 -11,-6.2 -4,12.1 -10,9.2 1,9 7,6 3,-9.1 7,-11.9 28,-15.3 5,-6 2,6 9,0 5,6.2 8,0 4,-9.1 10,-9.2 9,0 1,9.2 8,6 -2,3.1 6,18.2 26,11.9 5,9.2 10,3 12,18 1,-6 19,-2.9 16,-9.1 -2,2.9 16,12.3 0,-3.2 -8,-9.1 9,-2.9 10,15.2 21,9 30,30.3 -5,8.9 4,6 -22,0 -9,9.2 -17,3 -5,-3 3,3 19,15.1 20,6 11,0 6,-3 5,6.1 -6,6 7,0 0,12.1 6,15.1 3,21.2 8,15.1 7,27.2 2,15.1 6,6 -8,18.2 2,12 -6,21 -12,11.9 -16,11.9 3,22.4 -6,5.9 15,6 26,17.8 18,20.9 9,3 16,14.9 -5,16.3 3,3 -13,20.8 2,9 10,26.8 15,3.1 2,8.8 -2,23.9 12,13.4 -8,21.2 0,15 -6,11.2 -8,8.8 -1,12.5 7,6.2 4,15 11,10 5,17.4 -5,15 4,6.3 29,8.7 6,6.2 5,30 9,12.5 1,10 -7,32 -2,8.7 -12,38 -8,11 -4,19 -12,0 -14,-9 3,-17 -14,0 3,-16 -13,-9 -15,0 -18,-2 -7,11 10,4 3,8 11,4 -5,11 -19,2 -6,9 -24,12 -12,0 -10,6 -1,9 -8,6 -36,3 -14,6 1,6 -11,18 -11,-6 -14,15 -9,-3 -11,21 -24,4 -1,11 -12,10 -15,-10 -12,4 -12,8 -27,3 -6,12 -11,7 -9,15 -8,25 -8,-25 -11,-3 -1,-7 -11,-2 2,12 -5,5 17,20 -1,11 12,18 36,19 -1,8 11,6 -11,30 -11,9 6,13 13,7 1,14 9,6 7,19 4,0 4,19 15,9 12,18 20,-5 13,10 31,45 20,3 12,14 2,11 17,14 3,-9 17,6 10,16 11,3 16,24 -4,11 5,6 -1,22 -14,20 -17,-9 -16,-2 -13,6 3,11 -7,34 -21,19 -22,6 -19,6 -15,14 -9,3 -22,23 3,11 12,13 4,11 13,12 11,18 -16,29 13,9 9,-3 8,9 2,11 -6,12 1,21 -5,5 -11,0 -28,-17 5,-15 -9,-15 -18,0 -17,9 -10,4 -13,-15 -30,2 0,-11 -11,5 5,19 -6,6 -39,0 -14.5,2 -5.5,6 -33.8,-3 -11.5,21 -23.2,0 -8.2,12 3.2,5 -13,0 -8.1,11 -15.4,-6 -14.3,8 -17.8,0 -3.3,-8 -18.5,-16 1.3,-9 -11.5,3 -31.2,-12 -14.2,9 -18.4,-12 0.7,21 5.4,16 -6.9,11 -7.6,6 -10.6,16 -11.2,6 -13.8,0 8.5,-22 -2.9,-6 -19.6,6 -0.6,-22 -8.2,-11 -4.9,2 -7.5,-11 -23.1,-4 -1.1,-8 -9.1,0 -6.1,6 -18.4,-9 -9.3,-3 -7.7,-11 -17.3,-7 -13.8,-2 -15.6,-12 -8.8,-11 -17.2,-15 0,9 14.5,8 7.8,23 -32.3,-2 -19.1,5 -11.1,-5 -6.8,-12 -13.6,6 1.3,-15 -10.9,-11 -8.2,5 -1.1,-5 -23.3,5 -10.9,17 -1.7,10 10.8,9 18.3,-7 -1.5,18 -6.5,-9 -12.5,9 -15.6,0 -11,-9 -18.4,0 -16.4,12 -29.7,0 -2,-6 -12.9,-2 -9.4,8 -14.5,3 -7.7,-6 4.2,-5 -12.4,2 0.5,-6 -10.9,-17 3.3,-17 -1,-13 6.4,-14 0,-9 11.5,-30 -7.1,-12 0,-12 7.6,-22 11.3,-11 5.1,-19 8.7,-11 -2.3,-13 7.8,-20 6.4,-6 0,-25 7.4,-12 16.5,-13 3.9,-11 22.5,-15 8.6,-18 8.5,-16 14.2,-12 -14.2,12 -17.9,-6 -25.6,-13 -12.4,0 -13.7,-6 -20.6,3 -6.1,-6 -14.1,-6 -7.6,-11 1,-6 -17.4,-3 -17.4,12 -18.5,0 -10.9,-9 -10.8,6 -1,-15 -13.7,-8 -15.3,0 0.6,11 -5.4,3 -17.4,-9 -8.2,-24 -14.1,-17 4.2,-6 -11.9,-20 -14.66,-6 -9.27,0 1.65,-15 0.54,-12 11.94,-18 0.6,-6 12.4,-10 2.8,-21 -13.6,-3 -29.92,-23 -7.08,-15 -2.17,3 -8.71,-27 5.99,-31 7.06,-4 -2.71,-8 17.95,-9 8.16,-12 11.93,-4 -4.85,-11 2.75,-15 -1.7,-12 -21.72,-3 -5.46,-16 15.24,-14 -10.86,-5 -14.17,-24 -10.87,0 -5.45,-17 5.45,-12 7.07,-3 3.8,-14 -9.24,-9 1.08,-12 -20.66,0 -2.18,-17 10.34,3 10.88,-9 26.65,-17.8 -1.08,-8.1 -8.7,6.1 -4.36,-6.1 2.71,-12.8 14.15,-22.5 6,-2.6 4.34,-11.2 -0.54,-29.9 -15.22,-23.8 2.7,-12.4 -13.6,-8.7 2.71,-6.3 -12.51,-7.5 4.35,-11.2 -4.9,-9.9 25.04,-8.8 10.88,3.8 -9.25,-12.6 5.44,0 14.64,8.8 24,8.8 0,-8.8 9.2,3.8 29.5,-8.8 17.9,-3.8 11.4,-11.2 -4.8,-9.9 -15.2,-8.8 14.6,-17.5 10.3,0 8.7,-13.4 10.4,-6 12.5,-11.9 -1.6,-12 6.5,-20.8 -10.4,-20.9 -11.5,6.1 -23.8,-8.9 -7.1,-6 -2.6,-15 11.4,-4.3 -5.6,-15 10.4,-5.9 30.4,3 10.5,-3 4.2,-35.8 5,-14.8 16.9,-28.4 2.2,-14.9 -2.2,-23.8 4.8,-30.2 12,-18.1 14.2,6 -9.3,-9.1 -33.7,-2.8 -7.8,-9.1 1.3,-18.3 5.8,-18.1 13.2,-3 -8.1,-12.1 21.7,-21.1 11.8,-3.1 23,-3 6.8,6.1 22,-3.1 44.6,-6.1 12.2,3.1 2.8,18.1 16.2,21.2 -2.3,9.1 -14.5,6 5.9,12.1 7.6,0 7.5,9.1 6.7,0 6.3,-6.1 5,-18.2 -13.1,-2.9 4.7,-21.2 13.4,0 5.5,9.1 18.4,6 6,3.1 -7.2,9 -3.6,12.1 2.1,24.1 0,-30.2 9,-9.1 1.8,-9 -7.5,-15.1 -3.3,-15.3 0.9,-11.9 13.4,-33.2 4.7,-6.1 11.5,-3 8.5,9.1 16.9,5.8 38.2,-5.8 23.8,0 18.8,30.1 11.7,12.2 11.5,24.1 19.7,9.1 9.6,3.1 8.2,-3.1 -11.4,-3 -12.4,-3 -15.9,-12.1 -2,-18.1 -14.3,-12.1 -5.9,-18.2 -25.8,-15.1 -31.5,-3 -12.9,-12.1 -12,-24.2 12,0 12.3,3.1 3.4,-18.3 -5.4,-11.9 -17.6,5.9 -7,-15 4.3,-18.3 12.7,-2.9 6.1,-12.1 -32.8,5.9 -13.2,3.1 -7,-15 14.3,-3.2 -9.9,-9 18,-6 16.3,0 21.2,-12 1.2,-9.1 -22.4,-30.3 -6.5,-15.2 -17,-15.1 1.1,-6.1 -6,-12 2.2,-21.26 10.6,3.04 13.6,-3.04 z m 750,229.86 -6,-15.1 11,0 1,9.1 11,3.1 -3,-21.3 -4,3 -10,-12 -8,15.1 -5,3 2,-12.1 -14,6 4,-12 -1,-9 -8,18 14,12.2 2,6 9,3.1 -3,8.9 -9,9.1 2,3.1 13,-9.1 2,-9.1 z M 458.2,67.24 l 6.9,3.04 31.8,-3.04 -4,3.04 -17.9,0 -8.1,3.14 -15.7,-3.14 -5.4,3.14 -2.8,30.28 -1.8,-9.12 2.6,-27.34 13.2,-36.27 8.1,3.12 -11.2,15.11 0,11.98 4.3,6.06 z" style="fill: rgb(146, 148, 150); fill-opacity: 1; fill-rule: evenodd; stroke: none;"></path>
  <path id="boundaries" style="fill: none; stroke: rgb(255, 255, 255); stroke-width: 3px; stroke-linecap: round; stroke-linejoin: round; stroke-miterlimit: 4; stroke-dasharray: none; stroke-opacity: 1;" d="m 458.6,66.87 6.4,1.63 31.7,-0.54 -3.3,2.72 -18.4,-1.63 -8.2,4.89 -16,-3.26 -5.4,3.26 -2.8,29.36 -0.9,-9.23 2.1,-27.2 13.6,-35.36 7.6,1.09 -11.5,15.78 0,13.6 5.1,4.89 m 191.3,332.83 -12.4,-3.1 -15.7,-12.7 -2.4,-19 -13.9,-9.7 -5.4,-20.2 -26.3,-15.8 -30.8,-0.5 -13.6,-11.4 -11.5,-25.1 11.8,-1.6 12.1,3.3 3.3,-16.3 -5.5,-12 -17.5,4.3 -6.3,-13.6 4.2,-19 12.1,-4.3 6.3,-10.3 -33.2,4.8 -13,4.4 -7,-15.8 14.2,-4.9 -9.9,-7.6 18.1,-6 16.3,0.6 21.2,-12.5 0.9,-10.4 -22.1,-28.8 -6.6,-16.9 -16.3,-12.5 0.6,-6 -6.1,-14.65 2.1,-19.58 10.3,2.18 13.6,-3.81 52.9,14.69 4.8,11.42 15.4,0.54 7.6,-3.8 9.1,2.17 19,-13.6 0.6,8.71 15.7,3.26 16,9.25 2.8,6.52 13.6,-8.7 8.1,7.1 6.4,15.7 -13,6.6 15.1,0 -2.1,32.1 -14.2,13 -11.8,2.7 6,4.9 35.4,-8.1 11.2,8.7 -1.6,15.8 -7.5,6.5 6,7.6 4.9,-16.3 13.6,-8.7 7.5,0 12.1,8.7 23.3,10.3 13,12 12.7,0 22.6,-16.3 12.7,-1.7 2.1,4.9 14.5,-4.9 -8.1,10.9 2.7,29.4 -4.2,10.3 -17,10.9 -6,8.1 -15.7,4.4 -7,11.9 3.7,8.2 13.3,3.3 5.7,8.7 m -340,-185.5 -17.2,0 -8.2,-5.4 10.3,-9.8 13,0.5 5.5,6.6 -3.4,8.1 m 700.6,4.4 1,11.4 11,6.5 18,-4.3 6,1.1 7,10.8 -15,18 6,14.1 13,4.9 10,11.4 -7,10.4 -9,0.5 9,-7 -10,-4.9 -21,2.7 -20,21.2 8,-1.1 1,8.7 -16,-4.3 3,-8.2 -10,7.1 -23,-19.6 5,-9.8 15,-2.7 -2,-8.2 -12,-1.6 3,-6.5 11,-4.4 -4,-11.4 -7,2.2 -3,-10.4 11,-2.2 6,3.9 13,-11.5 -3,15.3 6,-4.9 6,11.9 11,0.6 -1,-16.9 -9,0 -11,-13 -14,13 -3,-3.3 5,-17.9 -9,3.3 3,-7.7 20,-6.5 8,3.3 -7,6 m -735.3,-4.4 0,-0.5 4.5,-3.8 -4.5,4.3 m 0,0 7.2,13.6 -4.5,4.9 -8.8,-12.5 6.1,-6 m 701.3,18.5 -5,3.8 -2,14.2 -6,6.5 6,-25 7,0.5 m -653.3,29.9 -7.8,2.2 -2.1,-9.2 14.2,-7.1 -4.3,14.1 m 376.9,7.6 8.7,16.4 -18.4,-3.3 -10.9,2.7 -2.4,-8.7 -9.1,1.1 -4.5,-4.9 4.5,-10.3 12.4,-7.1 12.7,5.4 7,8.7 m -345.4,1.7 -6.7,0.5 -4.2,-9.2 4.8,-4.4 17.5,-0.5 -11.4,13.6 m 295.2,127.8 21.8,-11.4 17.5,-2.8 10.9,9.8 -0.6,8.2 13.6,-4.4 18.4,13.6 4.5,-23.9 18.5,-19 6,-16.4 10.3,-4.3 12.1,1.6 34.7,-8.1 7.6,1 12.3,-17.4 22,-15.7 14,-23.4 9,-19.6 13,4.9 42,-0.5 6,3.8 -7,4.3 -26,-3.2 -10,2.7 -14,13 -11,-4.3 -4,12 -9,8.7 1,10.3 7,4.3 2,-9.7 7,-10.9 29,-15.8 5,-5.4 2,7.6 9,-2.7 5,8.7 8,-2.8 4,-8.7 9,-7.6 9,-1.6 2,10.9 8,4.3 -2,4.9 6,18 26,10.3 5,9.8 10,3.8 12,19.6 1,-7.1 19,-4.4 15,-9.2 -1,5.4 16,10.9 0,-2.7 -8,-8.7 8,-5.5 11,16.9 21,9.8 29,28.8 -4,8.2 4,7.1 -23,1 -7,6.6 -18,3.2 -4,-2.7 2,3.3 19,16.4 18,6.3 12,0.6 6,-5.4 5,7.6 -6,5.4 7,1.8 0,10.9 6,14.2 3,22.1 9,15.4 6,27.2 m -96,-187.2 -8,16.8 14,12 2,7.6 8,2.7 -1,7.6 -11,9.3 2,2.7 15,-8.7 1,-7.1 -6,-16.8 10,1 2,7.1 10,4.4 -3,-20.2 -3,1.7 -11,-12 -7,13.6 -5,3.3 1,-12 -14,7.1 4,-13.1 0,-7 m -339.6,31 -4.2,13 -13.6,-2.7 2.1,-5.4 11.5,-6.6 4.2,1.7 m -87,16.3 -0.3,7.6 -20.9,16.9 -0.6,29.2 7.3,1.9 8.8,9.6 10.8,3.9 2.8,29.4 -19.1,0 -1.2,13.6 -27.8,17.2 -4.8,18.7 m -311.3,-64.6 -3,-12.7 0.9,-11.8 13,-35.5 5.1,-5.5 11.8,-1.6 8.2,8.7 17.5,6.1 37.5,-7.7 23.8,0 18.5,30.9 12.1,13.6 12.1,22.4 19,10.9 9.7,2.1 m -290.5,-62.6 -7.5,3.4 -8.2,-2.1 5.5,-4.6 10.2,3.3 m -26.2,5.5 -16.8,0.6 -3.2,-3.9 17.2,0 2.8,3.3 m -41.3,4.8 -26.1,5.2 -6,-2.5 15.3,-4.2 16.8,1.5 m -65.8,368.4 -1.6,-12.1 6.5,-19.6 -10.3,-21.8 -11.4,4.5 -24,-6.6 -6.5,-6 -2.7,-16.4 11.4,-4.2 -6,-15.1 10.9,-4.5 29.9,2.1 10.3,-2.1 4.4,-36 4.9,-15.1 16.9,-27.8 2.7,-16.3 -2.7,-23.3 4.9,-29.3 11.9,-19.1 14.2,5.5 -8.7,-7.9 -34.3,-2.7 -7.1,-9.7 0.6,-18.4 6.5,-17.5 12.5,-3.7 -7.6,-12.6 21.7,-19.1 11.5,-3.6 23.4,-2.1 5.9,4.8 22.3,-3.9 45.3,-4.9 11.2,4 2.7,17.8 16.3,21.2 -2.1,6.6 -14.5,5.7 5.8,13.6 7.8,0 7.6,10 6.3,0.6 7.3,-7.8 4.2,-17.3 -13,-3.9 4.2,-19.9 13.6,-1.8 6.1,9.3 18.4,6.1 5.4,4.8 -6.9,6.3 -3.9,12.7 2.7,25.1 -0.3,-29.6 9.1,-10.6 m 264.4,24.8 -2.1,-6 -19.1,-17.3 -1.8,-12 5.5,-2.8 2.4,-11.8 -8.8,-12.9 4.2,-9.4 -15.1,0.6 -4.5,9.7 -10.3,7.2 -9.7,1.5 -15.4,12.1 -8.4,-8.1 -4.6,13.9 m -446.5,-13.6 -7.1,1.8 -4.9,-7.6 19.1,-4.5 -7.1,10.3 m 269.8,24.1 6.6,7.6 6,-6.7 -1.8,-22.3 -16.9,-3 m 6.1,24.4 1.8,-6.6 -7.9,-17.8 m 878.9,56.5 -9,6.9 -11,13 -22,-2.1 0,-4.8 12,-9.4 7,-14.2 0,-11.2 -16,-2.4 -6,5.4 -26,-0.9 -9,-19.6 -11,-8.2 2,14.2 -15,3.3 -14,16.7 -10,3.9 -6,19.6 -13,11.8 -19,-2.7 -7,14.2 -12,-6 -21,23.5 -9,-6.6 -12,3.3 -18,-3.3 -1,-6.1 m -446.7,-74.9 8.7,-2.1 -12.1,-3.9 m 3.4,6 0.6,9.7 13,19 19.6,5.1 14.5,-9.3 15.4,12.1 21.2,-7.3 m 0,0 8.7,2.1 21.2,12.7 10.9,0.6 m 567.6,-8.1 4,15.1 5,4.8 -9,19 2,11.5 -5,21.2 -13,12.7 -16,10.9 3,20.5 -5,6.7 14,7.5 26,18.4 18,21.2 9,2.7 16,14.2 -5,14.8 4,5.5 -13,19 1,10.3 11,25.4 14,5.1 3,9.1 -3,23.5 13,10.3 -9,21.8 0,15.1 -6,13.6 -8,9.4 -1,9.6 8,8.2 3,13 12,9.3 5,17.6 -5,16.6 m -354,-416.1 -12,1.2 -14,-11.5 -17,-6.1 -6,-6.3 -18.5,3.6 -7.6,14.2 -7.5,5.5 -21.8,7.5 3.9,6.1 -14.2,2.7 -6.6,-8.2 -15.1,3.4 -10,8.1 3.3,14.8 -8.1,6.4 -15.1,-2.8 -0.7,6.1 -18.4,-2.1 m -101.2,-62 11.5,-1.2 8.1,5.5 0.9,10.8 29,20.3 23.9,20.5 8.2,-7.5 7.5,8.1 4.9,-3.3 7.2,8.8 m 220.4,-31.8 -16,-6.3 -19,-4.5 m -593.4,16.9 -9.3,-3.3 2.1,6.6 14.8,4.8 3.9,12.7 9.1,13 0,7 24.5,1.8 7.2,5.4 9.1,-6.6 0.6,-20.6 -6.1,-7.2 -3.3,6 -24.8,-13.6 -8.1,0.6 -19.7,-6.6 m 408,25.7 8.8,11.5 13,-2.5 25.1,8.8 m 0,0 15.1,7.6 2.1,6.6 10.3,-2.7 10.5,16.3 20.6,10.3 18.9,-1.5 3,6 14,0 5,11.8 -6,8.8 0,10.8 6,12.1 -3,12.4 -7,1.2 -5,20 4,8.7 9,-5.4 12,14.2 -6,10.3 -1,23.9 -4,16.9 6,6.6 -7,14.5 10,16.3 26,28.5 7,-2.8 14,11.8 7,1.8 10,-7.5 32,19 12,0.9 18,13 27,-1.5 -11,16.9 4,19.7 -5,9 -13,15.5 m -235.5,-350 -2.8,8.2 -8.1,2.7 -0.6,14.2 -13.6,9.7 -25.1,7.2 -5.5,-4.8 -29.9,-2.7 -8.1,11.1 -11.5,4.6 -18.4,2.7 -0.7,13 6.7,15.7 5.4,2.7 13,23 8.8,0.9 -3.9,17.5 7.5,11.5 -8.1,1.5 -1.5,7.6 11.4,14.2 9.1,8.1 -10.9,7.3 2.4,13.9 10.9,15.4 -10.6,9.7 6.1,4.5 -2.7,9.1 -13.6,8.7 3.3,8.2 -18.4,3.9 -30.6,2.1 -4.8,7.6 -7.6,1.2 11.2,11.8 -4.8,8.7 3.9,9.7 -8.7,10 0.6,16.9 12.3,17.2 4.9,17.6 m 426.5,-261.1 0,8.1 11,11.5 12,4.8 -3,13.6 6,-1.2 14,9.4 -6,19 -9,8.8 -2,-8.8 -27,-8.7 -5,9.3 -20,-7.8 -13,0 -9,5.4 -9,-5.4 6,-26.6 2,-18.4 7,2.7 2,-9.7 13,-8.1 3,7.5 8,-0.6 14,-9.7 5,4.9 m -621.7,257.7 -10.9,0 3.3,-20.2 7,-10.3 3.3,-23.9 -20.6,2.2 2.1,-11.8 -12,-4.6 5.1,-12.3 -18.1,-4 4.5,-8.1 -1.2,-13.6 -7.6,-14.2 -21.7,-0.9 -1.2,-13.6 9.3,-1.9 3.7,-10.2 -13,-7 5.4,-19 8.8,-1.8 8.7,-14.5 -2.7,-10.9 3.6,-6.7 -7.5,-4.8 -13,8.2 -6.1,13.6 -20.5,4.2 -18.1,-4.8 0,-17.9 -10.9,-11.5 -20.6,4 -8.1,13 -12.4,2.7 -10,-2.7 4.9,13.6 14.2,8.1 4.5,15.7 0,24.5 4.8,4.2 -16.9,18.8 -19,-6.1 -13.6,12.4 -24.5,3.4 -8.8,6.6 -8.7,-4.5 -2.8,-8.8 16.1,-7.6 4.2,-12.3 -10.9,-1.9 -6.9,-7.5 12.3,-25.4 -9.6,-16.3 -12.1,3 -19.1,-13.6 -2.7,-11.8 -10.9,-3.9 -1.6,15.4 -6.5,10.3 -7.6,0 -15.3,13.6 -17.9,9.7 -27.7,1.2 -15.3,5.4 m -127.3,471.2 -4.86,-11 2.76,-16 -1.13,-12 -21.76,-4 -5.44,-13 14.69,-17 -10.88,-1 -14.14,-25 -10.88,0 -4.9,-18 4.9,-12 7.61,-3 3.81,-16 -9.79,-6 1.09,-10 -20.13,0 -2.72,-20 10.34,5 10.87,-11 26.66,-18 -1.09,-7.5 -8.16,4.8 -4.35,-7 2.18,-10.5 14.14,-20.6 5.98,-4.2 4.9,-12.7 -0.55,-30.5 -15.77,-22.1 2.72,-12.1 -13.06,-10.3 2.18,-7.2 -12.51,-5.7 4.89,-10.9 -5.44,-7.9 25.03,-10.3 10.88,3.4 -9.25,-11.5 5.44,-2.1 14.64,9.3 24,9.7 0,-8.2 9.8,4 29.3,-10.9 18,-2.4 10.9,-11.8 -4.4,-10.9 -15.8,-9.4 15.3,-17.2 9.8,-0.6 9.2,-11.5 9.8,-5.4 12.5,-13 m 932.5,158.4 -13,-2.8 -19,-9.9 -12,10.8 -11,-2.1 -7,9.4 -35,0.9 -1,7.3 -20,5.4 -11,-1.8 -6,8.1 0,14.8 -5,5.5 4,30.5 -7,8.5 6,23.5 -2,7 11,19.7 7,1 m -364.5,-70.3 -6.9,-8.4 -29.9,13 7.5,13.6 -8.1,4.2 -4.3,-5.4 -18.1,-7 2.4,-14.2 8.2,-0.6 0.9,-16.9 -6.4,-10.9 7.6,-14.5 6.3,0 -9,-14.8 -20.3,-0.6 -8.1,-4.3 m 0,0 -17,10.3 3.4,3.3 -9.7,19.1 -11.5,6.9 -1.5,7.3 -16.3,3.6 -3.9,-10.3 -10.3,-6.3 -17.5,6.9 3.9,22.4 -39.3,6 -17.2,21.2 3.6,8.8 18.1,-7.3 4.9,25.1 -15.5,20.1 -20.5,-1 2.7,18 -16.9,25 -13,14 -10.3,-5 -25.7,23 4.9,11 -6.4,14 m 774.7,-234.8 17,11.1 7,18.8 -3,3.6 0,22.4 10,0 25,-10.3 18,13 39,2.7 31,-4.2 11,-17.6 3,-12 13,-13.6 18,-2.2 11,4.9 26,-13 13,-2.1 18,4.2 m -625.5,-3.6 16.9,0.9 21.8,9.3 -4.9,6.1 9.4,25.1 -1.2,10.2 5.4,4.9 31.2,2.7 18.4,3.3 8.2,6.1 13.5,21.1 -4.5,7 -13.9,7.2 13.9,13.8 1.2,16 41.4,0 7,19 20.2,-2 11.5,6 11,12 25,-2 6,6 12,-20 -5,-6 3,-13 m -247.5,-133.7 -13.6,16.3 -14.5,4.2 -14.8,-9 -7,1.5 -1.8,10.8 -19.3,17.6 -7.3,-1.8 -6.9,11.4 -16.4,0 -15.4,12.4 m 742.5,-59.8 4,5.4 28,10.6 6,4.2 5,30 9,13.6 2,8.7 -8,33.3 -1,10.3 -12,37 -8,11 -4,16 -12,0 -14,-6 2,-16 -13,0 2,-17 -13,-9 -15,2 -17,-5 -7,14 10,2 3,8 10,4 -5,11 -18,1 -6,8 -24,12 -12,1 -10,6 -2,9 -7,6 -36,4 -14,6 1,7 -11,17 -11,-7 -15,15 -8,-3 -11,22 -24,2 -2,14 -12,8 -15,-9 -11,2 -12,11 -27,2 -6,11 -11,8 -10,14 -8,25 -8,-24 -9,-2 -2,-9 -11,-2 m -327.1,-47 -1.8,-23 5.2,-4 -4,-11 -15.7,1 -1.8,9 -10.3,-4 6.1,-12 6,-31 10.9,-4 6.1,-12 -7.9,-10 -5.4,3 -2.8,-8 13.6,0 -2.7,-11 4.5,-6 21.8,3 0.6,-12 -7.8,-3 4.5,-15 -7.3,-5 7.9,-2 3,7 5.5,-16.7 -22.7,-9.7 -4.8,-13 -16.4,-7.2 -3.3,-14.2 3.6,-5.5 m 364.5,70.3 10,-1 24,7 11,21 9,5 7,12 -5,8 -13,-1 -16,13 -8,0 -18,9 4,5 -7,12 7,11 6,1 -10,12 -11,0 -6,17 -11,0 -4,8 -10,-3 -10.1,14 3.9,6 -6.6,12 m -599.9,-69 -12.7,-2 -11.1,-21 -1.3,-16 -4.2,1 -15.4,-13 2.7,-10 -8.7,-3 -7.5,6 1.1,18 -14.7,6 3.2,7 -16.3,12 -33.7,6 -3.3,16 -14.1,4 -13.6,-4 -7.1,8 -16.9,2 -17.9,8 -9.3,8 0,11 -10.8,-3 -9.8,4 4.3,28 -12.5,4 -8.1,-6 -7.7,2 -4.9,-7 -21.2,9 -8.7,-11 3.8,13 -8.7,1 m 321.4,198 -8.2,-21 3.4,-11 15.7,-12 -8.2,-2 -13,-31 0,-17 -16.9,-21 -8.2,-2 -20.5,6 -21.2,11 -6.6,0 -4.2,-10 -12.6,-11 11.9,-8 2.2,-7 10.8,3 -3.6,-12 4.9,-11 11.4,-7 4.3,3 4.2,-11 12.7,-4 -10.9,-24 -10.9,-6 6.4,-15 -1.5,-16 6,-6 10.3,5 9.7,-15 -6.4,-15 2.7,-9 m 304.6,47 11.5,-12 9.7,4 8.2,9 12.3,5 29.1,34 8.7,-1 5.8,8 4.5,25 17.2,4 0.6,-8 18.2,0 -0.6,-8 -20.3,-12 2.1,-10 10,-6 25.1,-1 6.9,10 19.7,-4 3.6,13 9.4,10 10.2,-1 4,-21 -5.5,-29 15.7,-11 12.4,1 -0.3,18 8.5,3 9.4,12 42,-9 5.4,5 11.8,-6 m -450.3,210 -6.6,-8 6.6,-7 -1.8,-12 5.4,-2 2.5,-23 -11.5,-11 -6.7,-19 0.6,-34 -8.1,-3 5.4,-10 16.3,-7 7,3 12.1,-8 16.3,2 12.4,12 16,-4 3.6,-15 -4.2,-2 2.1,-15 15.7,3 8.2,-3 3.3,-11 10.9,-6 3.3,-24 14.5,1 23,-12 8.7,-17 m 295.3,22 12.7,7 0.1,9 19,9 m -932,183 1.09,-10 12.01,-18 0.5,-8 12,-7 2.7,-23 -13.6,-3 -29.93,-22 -7.07,-18 -1.63,3 -9.25,-27 5.98,-28 7.08,-5 -2.18,-7 17.41,-10 8.16,-12 11.93,-4 m 916.8,16 1,12 -4,5 17,18 0,13 11,18 36,17 0,10 10,7 -11,31 -11,9 6,11 13,7 1,13 9,8 7,17 5,2 3,20 15,8 11,16 21,-2 13,9 30,43 20,5 13,13 2,11 17,13 3,-6 18,3 8,16 12,3 16,25 -5,10 5,7 -1,21 -13,23 -16,-9 -17,-5 -14,7 4,13 -7,33 -21,18 -23,5 -18,8 -16,13 -9,3 -21,21 2,14 13,11 4,12 13,11 11,19 -16,31 13,4 9,-2 8,9 2,13 -6,10 1,22 -5,6 -11,1 -29,-20 6,-15 -9,-13 -18,-1 -17,10 -10,2 -13,-15 -31,3 0,-13 -10,7 4,19 -6,6 -39,0 -13.9,3 -4.8,6 -34.5,-3 -11.4,19 -23.3,3 -8.2,9 3.3,6 -12.9,3 -8.2,8 -15.4,-5 -14.2,8 -17.8,1 -3.4,-11 -18.4,-15 1.2,-9 -11.5,3 -31.1,-11 -14.2,8 -18.4,-10 0.6,19 5.4,14 -6.7,14 -8.1,5 -10.3,15 -11.5,6 -13.6,1 8.8,-20 -2.7,-6 -20,3 -0.6,-18 -8.1,-12 -4.9,2 -7.8,-11 -22.7,-5 -0.6,-9 -9.7,-1 -5.4,9 -18.7,-10 m 0,0 18.1,-5 25.4,-17 14.8,4 17.8,-5 2.7,7 10,-9 -2.7,-20 -6.1,-5 8.8,-8 -5.4,-15 2.1,-14 -3.9,-6 7.2,-19 0.9,-18 -4.2,-10 -8.8,-39 -12.4,-19 14.5,-23 11.5,-3 2.7,5 27.2,-17 0,-19 -6.9,-18 4.2,-5 12.7,9 8.5,-9 1.2,7 10.3,-7 -10.3,-16 4.2,-17 0,-27 -16.6,-23 -13.3,-4 -1.5,-19 -19.7,-19 -2.1,-17 4.3,-1 -5.8,-24 8.2,-4 -9.4,-13 2.7,-18 -6.9,-8 -10.9,16 -13.6,0 -3.3,-25 -12.7,7 7.2,-14 -7.5,-11 -6.7,-18 -10.9,9 -2.1,-8 -5.4,7 -7.6,-2 2.8,-21 -7.3,3 -17.8,-6 -23,2 -6.3,13 18.4,6 -3.9,17 -4.3,-2 -15.4,5 -5.4,12 -22.7,0 m -449.9,-2 22.8,-1 19.1,1 17.4,-4 24.5,-10 13,-7 10.4,0 11.4,7 9.8,1 13.6,10 8.1,-4 5.5,24 -10.4,9 8.2,16 13.6,4 0,8 -12.5,21 -4.4,12 12.5,10 m 174,-98 13.6,3 10.6,11 8.4,-5 -2.1,-16 11.5,-2 6.9,20 27.9,9 -7,6 -6,20 4.8,2 16.9,-15 2.1,-12 27.2,-2 -6.9,-15 5.4,-1 m -139.3,139 13,-25 6,-30 15.8,-16 -3.4,-4 6.7,-15 0,-17 -4.9,-6 -8.7,-23 1.5,-6 m -174,98 -17.9,14 -18.5,-3 -10.9,-7 -10.9,5 -1,-15 -13.6,-7 -14.7,-2 0,12 -4.9,4 -17.4,-8 -8.7,-25 -14.2,-17 4.4,-6 -12,-19 -14.14,-8 -9.79,2 1.63,-17 m 310.6,141 -14.2,12 -17.8,-6 -25.1,-15 -12.5,1 -13.6,-4 -20.7,2 -6.5,-7 -14.2,-5 -7.6,-12 1.1,-6 -16.9,-4 m 361.7,403 -9.7,-2 -7,-12 -18.1,-9 -13.6,-2 -15.7,-11 -8.8,-10 -16.9,-13 0,7 14.8,11 7,19 -32.1,-3 -18.4,7 -11.5,-8 -6.3,-10 -14.2,6 0.9,-13 -10.3,-10 -8.8,6 -0.3,-8 -23.5,7 -11.5,14 -1.5,10 10.8,7 19.1,-5 -2.1,18 -6.1,-8 -12.4,9 -16.3,0 -10.9,-9 -18.7,0 -15.7,11 -29.9,1 -2.2,-7 -13,-2 -9.3,9 -14.6,3 -7.7,-5 4.4,-8 -12.5,2 1.1,-6 -10.9,-16 3.3,-15 -1.7,-13 6.6,-13 0,-10 11.4,-31 -7.1,-13 0,-10 7.6,-21 11.4,-14 4.9,-18 8.7,-11 -1.6,-13 7.1,-22 6.5,-6 0,-23 7.6,-11 16.3,-13 3.9,-11 22.7,-15 8.1,-21 8.8,-13 14.2,-12"></path>
  <g id="labels">
    <text xml:space="preserve" style="font-style:normal;font-weight:normal;font-size:25px;line-height:125%;font-family:sans-serif;text-align:center;letter-spacing:0px;word-spacing:0px;text-anchor:middle;fill:#000000;fill-opacity:1;stroke:none;stroke-width:1px;stroke-linecap:butt;stroke-linejoin:miter;stroke-opacity:1;" x="684.29688" y="254" id="text4538"><tspan x="684.29688" y="254" id="tspan4542">SCHLESWIG-</tspan><tspan x="684.29688" y="288.375" id="tspan4551">HOLSTEIN</tspan></text>
    <text id="text4553" y="342" x="1064.2969" style="font-style:normal;font-weight:normal;font-size:25px;line-height:125%;font-family:sans-serif;text-align:center;letter-spacing:0px;word-spacing:0px;text-anchor:middle;fill:#000000;fill-opacity:1;stroke:none;stroke-width:1px;stroke-linecap:butt;stroke-linejoin:miter;stroke-opacity:1" xml:space="preserve"><tspan id="tspan4557" y="342" x="1064.2969">MECKLENBURG-</tspan><tspan y="373.25" x="1064.2969" id="tspan4561">VORPOMMERN</tspan></text>
    <text id="text4563" y="624" x="566.29688" style="font-style:normal;font-weight:normal;font-size:25px;line-height:125%;font-family:sans-serif;text-align:center;letter-spacing:0px;word-spacing:0px;text-anchor:middle;fill:#000000;fill-opacity:1;stroke:none;stroke-width:1px;stroke-linecap:butt;stroke-linejoin:miter;stroke-opacity:1" xml:space="preserve"><tspan id="tspan4567" y="624" x="566.29688">NIEDERSACHSEN</tspan></text>
    <text xml:space="preserve" style="font-style:normal;font-weight:normal;font-size:25px;line-height:125%;font-family:sans-serif;text-align:center;letter-spacing:0px;word-spacing:0px;text-anchor:middle;fill:#000000;fill-opacity:1;stroke:none;stroke-width:1px;stroke-linecap:butt;stroke-linejoin:miter;stroke-opacity:1" x="502.29688" y="470" id="text4571"><tspan x="502.29688" y="470" id="tspan4573">BREMEN</tspan></text>
    <text id="text4575" y="486" x="710.29688" style="font-style:normal;font-weight:normal;font-size:25px;line-height:125%;font-family:sans-serif;text-align:center;letter-spacing:0px;word-spacing:0px;text-anchor:middle;fill:#000000;fill-opacity:1;stroke:none;stroke-width:1px;stroke-linecap:butt;stroke-linejoin:miter;stroke-opacity:1" xml:space="preserve"><tspan id="tspan4577" y="486" x="710.29688">HAMBURG</tspan></text>
    <text xml:space="preserve" style="font-style:normal;font-weight:normal;font-size:25px;line-height:125%;font-family:sans-serif;text-align:center;letter-spacing:0px;word-spacing:0px;text-anchor:middle;fill:#000000;fill-opacity:1;stroke:none;stroke-width:1px;stroke-linecap:butt;stroke-linejoin:miter;stroke-opacity:1" x="946.29688" y="840" id="text4646"><tspan x="946.29688" y="840" id="tspan4648">SACHSEN-ANHALT</tspan></text>
    <text id="text4650" y="766" x="1266.2969" style="font-style:normal;font-weight:normal;font-size:25px;line-height:125%;font-family:sans-serif;text-align:center;letter-spacing:0px;word-spacing:0px;text-anchor:middle;fill:#000000;fill-opacity:1;stroke:none;stroke-width:1px;stroke-linecap:butt;stroke-linejoin:miter;stroke-opacity:1" xml:space="preserve"><tspan id="tspan4652" y="766" x="1266.2969">BRANDENBURG</tspan></text>
    <text xml:space="preserve" style="font-style:normal;font-weight:normal;font-size:25px;line-height:125%;font-family:sans-serif;text-align:center;letter-spacing:0px;word-spacing:0px;text-anchor:middle;fill:#000000;fill-opacity:1;stroke:none;stroke-width:1px;stroke-linecap:butt;stroke-linejoin:miter;stroke-opacity:1" x="1164.2969" y="590" id="text4654"><tspan x="1164.2969" y="590" id="tspan4656">BERLIN</tspan></text>
    <text xml:space="preserve" style="font-style:normal;font-weight:normal;font-size:25px;line-height:125%;font-family:sans-serif;text-align:center;letter-spacing:0px;word-spacing:0px;text-anchor:middle;fill:#000000;fill-opacity:1;stroke:none;stroke-width:1px;stroke-linecap:butt;stroke-linejoin:miter;stroke-opacity:1" x="298.29688" y="904" id="text4658"><tspan x="298.29688" y="904" id="tspan4660">NORDRHEIN-</tspan><tspan x="298.29688" y="935.25" id="tspan4662">WESTFALEN</tspan></text>
    <text id="text4664" y="1032" x="1224.2969" style="font-style:normal;font-weight:normal;font-size:25px;line-height:125%;font-family:sans-serif;text-align:center;letter-spacing:0px;word-spacing:0px;text-anchor:middle;fill:#000000;fill-opacity:1;stroke:none;stroke-width:1px;stroke-linecap:butt;stroke-linejoin:miter;stroke-opacity:1" xml:space="preserve"><tspan id="tspan4666" y="1032" x="1224.2969">SACHSEN</tspan></text>
    <text id="text4668" y="1140" x="520.29688" style="font-style:normal;font-weight:normal;font-size:25px;line-height:125%;font-family:sans-serif;text-align:center;letter-spacing:0px;word-spacing:0px;text-anchor:middle;fill:#000000;fill-opacity:1;stroke:none;stroke-width:1px;stroke-linecap:butt;stroke-linejoin:miter;stroke-opacity:1" xml:space="preserve"><tspan id="tspan4670" y="1140" x="520.29688">HESSEN</tspan></text>
    <text xml:space="preserve" style="font-style:normal;font-weight:normal;font-size:25px;line-height:125%;font-family:sans-serif;text-align:center;letter-spacing:0px;word-spacing:0px;text-anchor:middle;fill:#000000;fill-opacity:1;stroke:none;stroke-width:1px;stroke-linecap:butt;stroke-linejoin:miter;stroke-opacity:1" x="846.29688" y="1082" id="text4672"><tspan x="846.29688" y="1082" id="tspan4674">THÜRINGEN</tspan></text>
    <text id="text4676" y="1556" x="952.29688" style="font-style:normal;font-weight:normal;font-size:25px;line-height:125%;font-family:sans-serif;text-align:center;letter-spacing:0px;word-spacing:0px;text-anchor:middle;fill:#000000;fill-opacity:1;stroke:none;stroke-width:1px;stroke-linecap:butt;stroke-linejoin:miter;stroke-opacity:1" xml:space="preserve"><tspan id="tspan4678" y="1556" x="952.29688">BAYERN</tspan></text>
    <text xml:space="preserve" style="font-style:normal;font-weight:normal;font-size:25px;line-height:125%;font-family:sans-serif;text-align:center;letter-spacing:0px;word-spacing:0px;text-anchor:middle;fill:#000000;fill-opacity:1;stroke:none;stroke-width:1px;stroke-linecap:butt;stroke-linejoin:miter;stroke-opacity:1" x="508.29688" y="1672" id="text4680"><tspan x="508.29688" y="1672" id="tspan4682">BADEN-WÜRTTEMBERG</tspan></text>
    <text id="text4684" y="1280" x="226.29688" style="font-style:normal;font-weight:normal;font-size:25px;line-height:125%;font-family:sans-serif;text-align:center;letter-spacing:0px;word-spacing:0px;text-anchor:middle;fill:#000000;fill-opacity:1;stroke:none;stroke-width:1px;stroke-linecap:butt;stroke-linejoin:miter;stroke-opacity:1" xml:space="preserve"><tspan id="tspan4686" y="1280" x="226.29688">RHEINLAND-</tspan><tspan y="1311.25" x="226.29688" id="tspan4763">PFALZ</tspan></text>
    <text xml:space="preserve" style="font-style:normal;font-weight:normal;font-size:25px;line-height:125%;font-family:sans-serif;text-align:center;letter-spacing:0px;word-spacing:0px;text-anchor:middle;fill:#000000;fill-opacity:1;stroke:none;stroke-width:1px;stroke-linecap:butt;stroke-linejoin:miter;stroke-opacity:1" x="168.29688" y="1540" id="text4692"><tspan x="168.29688" y="1540" id="tspan4694">SAARLAND</tspan></text>
  </g>
  <path id="lines" d="M 480.2 402 L 516 440.5 L 480.2 402 z M 692 416 L 708 458 L 692 416 z M 519.8 479.8 L 508.3 509.7 L 519.8 479.8 z M 1162 599.7 L 1202 641.7 L 1162 599.7 z M 190 1460 L 170 1508 L 190 1460 z " style="fill:none;fill-rule:evenodd;stroke:#000000;stroke-width:1px;stroke-linecap:round;stroke-linejoin:round;stroke-opacity:1"></path>
</svg>